<?xml version="1.0" standalone="no"?>
<!DOCTYPE svg PUBLIC "-//W3C//DTD SVG 20010904//EN"
 "http://www.w3.org/TR/2001/REC-SVG-20010904/DTD/svg10.dtd">
<svg version="1.0" xmlns="http://www.w3.org/2000/svg"
 width="700.000000pt" height="700.000000pt" viewBox="0 0 700.000000 700.000000"
 preserveAspectRatio="xMidYMid meet">
<metadata>
Created by potrace 1.14, written by Peter Selinger 2001-2017
</metadata>
<g transform="translate(0.000000,700.000000) scale(0.100000,-0.100000)"
fill="#000000" stroke="none">
<path d="M6384 6984 c-48 -17 -98 -63 -124 -113 -18 -37 -26 -78 -36 -191 -6
-63 -7 -66 -63 -120 -32 -30 -65 -61 -74 -68 -13 -11 -26 -2 -94 65 l-79 79
17 28 c16 26 16 33 4 55 -21 40 -106 118 -145 134 -113 45 -249 -89 -210 -207
13 -40 130 -156 157 -156 10 0 28 7 39 14 23 16 28 13 132 -96 l44 -46 -88
-83 c-48 -46 -100 -96 -115 -111 l-26 -26 -77 77 c-71 72 -75 78 -61 96 30 41
13 72 -93 168 -33 29 -50 37 -80 37 -85 -1 -169 -70 -179 -149 -8 -62 2 -84
72 -155 68 -69 93 -79 131 -52 18 13 25 8 94 -60 l74 -73 -64 -61 c-36 -34
-121 -115 -190 -180 -69 -65 -148 -140 -176 -167 -28 -26 -126 -120 -219 -208
-93 -88 -212 -201 -264 -251 -53 -50 -130 -123 -171 -162 -41 -39 -118 -111
-170 -161 -52 -50 -98 -91 -102 -91 -4 0 -40 22 -80 49 -400 268 -833 295
-1196 75 -197 -119 -342 -276 -468 -507 -91 -167 -90 -166 -194 -182 -82 -13
-121 -39 -151 -98 -33 -64 -23 -121 33 -170 94 -85 118 -111 119 -131 6 -117
-95 -248 -312 -408 -154 -113 -299 -186 -386 -195 -51 -6 -54 -4 -85 30 -18
20 -42 53 -53 74 -35 69 -58 95 -98 113 -37 17 -54 17 -135 4 -44 -7 -88 -53
-102 -106 -6 -24 -14 -51 -16 -61 -7 -21 -73 -71 -129 -97 -78 -35 -120 -52
-145 -56 -13 -3 -29 -9 -35 -13 -5 -5 -28 -14 -50 -21 -86 -27 -291 -147 -351
-204 -6 -6 -36 -34 -65 -62 -184 -172 -303 -398 -338 -641 -10 -68 -8 -301 3
-358 40 -203 71 -298 161 -480 115 -232 263 -433 480 -650 342 -343 715 -560
1082 -631 94 -18 329 -25 418 -12 96 14 201 49 310 103 152 75 256 156 368
288 119 140 163 220 251 452 31 83 74 175 94 205 37 54 60 68 135 85 37 8 85
61 92 100 3 16 7 41 9 55 8 49 -45 150 -77 150 -16 0 -109 61 -136 89 -21 22
-23 31 -18 79 17 161 275 532 450 647 46 31 70 40 115 43 55 4 58 3 95 -35 21
-21 45 -49 54 -63 39 -65 121 -87 190 -51 57 29 81 68 99 158 8 42 22 85 31
95 9 10 71 48 137 85 155 85 225 135 323 231 148 144 246 298 302 473 36 111
54 311 37 409 -3 19 -8 46 -10 60 -26 155 -103 339 -208 498 -26 40 -48 76
-48 80 0 4 37 45 81 92 237 249 372 391 400 421 17 19 96 102 174 184 78 83
162 171 186 196 82 88 334 352 424 446 l90 94 74 -75 c73 -73 74 -75 58 -99
-23 -35 -12 -61 55 -125 64 -62 107 -83 153 -75 71 13 143 86 146 148 4 71 -1
81 -71 152 -71 72 -86 78 -129 54 -22 -12 -27 -9 -99 63 l-76 76 55 58 c31 31
80 83 111 116 l56 58 79 -78 80 -79 -18 -29 c-9 -16 -15 -36 -12 -45 4 -9 35
-45 70 -81 l65 -65 63 0 c56 0 68 4 102 31 21 17 46 51 57 76 29 70 17 108
-57 185 -67 70 -95 83 -131 60 -23 -15 -25 -14 -105 66 l-82 82 35 33 c24 22
46 32 68 33 18 0 42 2 53 4 11 2 45 7 75 10 102 11 181 76 210 170 8 27 11
105 8 240 -3 196 -4 201 -30 245 -31 53 -70 84 -124 99 -60 17 -409 13 -460
-5z m389 -203 c4 -1 6 -74 5 -163 l-3 -163 -60 -7 c-33 -4 -87 -10 -120 -14
-33 -3 -71 -12 -85 -19 -14 -7 -82 -73 -150 -146 -69 -73 -143 -152 -165 -175
-35 -36 -304 -319 -390 -409 -225 -237 -336 -355 -365 -385 -19 -20 -100 -106
-180 -190 -80 -84 -163 -172 -185 -195 -22 -23 -107 -114 -190 -201 -82 -87
-191 -201 -241 -254 -51 -52 -106 -111 -124 -130 -27 -29 -197 -209 -375 -396
-59 -62 -312 -328 -369 -387 -259 -274 -355 -376 -441 -465 l-100 -104 -128
127 c-70 70 -127 131 -127 135 0 5 4 10 9 12 5 2 78 68 162 148 84 80 169 161
189 180 40 38 336 319 405 385 218 207 356 338 385 365 19 18 78 73 131 124
118 113 410 390 464 441 22 20 105 99 185 175 80 76 170 162 202 191 31 30
122 117 204 194 81 77 165 157 188 179 23 21 108 102 190 180 159 151 163 155
396 376 251 237 337 324 337 340 1 20 14 144 22 200 l6 45 120 5 c102 4 158 4
198 1z m-3178 -1985 c115 -15 258 -67 378 -136 127 -73 125 -59 27 -152 -47
-44 -150 -142 -229 -217 -79 -75 -164 -156 -190 -180 -45 -42 -306 -290 -486
-462 -49 -47 -123 -117 -164 -155 -192 -181 -209 -199 -216 -236 -4 -20 -4
-45 -1 -56 4 -11 111 -124 238 -251 240 -238 261 -254 318 -236 28 9 89 70
531 539 46 49 102 108 124 131 55 57 344 361 386 406 177 189 274 289 279 289
12 0 100 -156 135 -238 141 -334 92 -631 -150 -908 -84 -96 -183 -170 -350
-258 -146 -78 -177 -105 -216 -189 -22 -47 -23 -47 -43 -28 -75 69 -209 90
-325 51 -163 -54 -323 -204 -494 -461 -226 -339 -246 -555 -65 -699 l49 -39
-30 -15 c-77 -40 -161 -185 -241 -416 -101 -293 -335 -530 -610 -620 -88 -28
-151 -35 -305 -34 -195 2 -360 48 -568 156 -104 55 -267 159 -288 184 -9 12
-2 29 36 87 92 138 180 243 335 397 150 150 251 233 382 314 211 130 365 259
392 326 24 61 8 83 -229 321 -275 275 -278 276 -394 160 -97 -97 -145 -160
-235 -309 -78 -130 -139 -208 -269 -346 -133 -142 -286 -275 -425 -370 -85
-58 -104 -67 -116 -57 -49 40 -200 304 -256 445 -61 155 -83 266 -84 421 -1
145 4 198 28 275 44 144 123 274 233 382 129 128 237 192 448 268 183 66 301
136 355 212 l28 38 26 -39 c147 -212 422 -164 831 145 71 53 153 129 212 196
156 176 189 395 80 524 l-27 32 48 20 c76 33 114 77 186 215 70 134 132 223
215 307 157 158 330 249 511 267 30 3 56 6 58 8 4 3 82 -2 137 -9z m-1663
-3108 c-26 -22 -105 -75 -177 -120 -178 -111 -273 -187 -445 -357 -158 -157
-250 -265 -344 -404 -33 -48 -62 -87 -66 -87 -15 0 -183 181 -174 188 5 5 47
35 94 67 143 99 229 172 385 329 171 172 248 268 359 446 43 69 97 148 120
177 l41 51 127 -125 126 -126 -46 -39z"/>
<path d="M2230 3114 c-80 -39 -200 -136 -385 -308 -138 -128 -270 -202 -339
-189 l-26 5 25 24 c46 43 23 113 -41 121 -30 5 -83 -44 -85 -79 -6 -84 10
-117 77 -156 79 -46 224 -15 359 78 61 42 245 205 380 337 38 37 132 93 154
92 14 0 20 -3 13 -6 -19 -8 -42 -58 -37 -83 15 -77 120 -72 146 8 15 47 4 93
-34 136 -29 34 -38 38 -92 42 -51 4 -69 0 -115 -22z"/>
<path d="M2124 2656 c-19 -19 -34 -44 -34 -58 0 -33 475 -508 509 -508 30 0
91 61 91 91 0 34 -475 509 -509 509 -13 0 -38 -15 -57 -34z"/>
<path d="M2943 2464 c-62 -31 -67 -112 -7 -134 38 -15 49 -13 78 16 24 24 26
25 26 7 0 -46 -45 -106 -215 -288 -128 -138 -176 -193 -215 -250 -91 -132
-123 -271 -81 -352 38 -75 97 -104 166 -81 48 16 80 57 71 91 -14 59 -78 76
-121 33 -22 -22 -24 -22 -28 -4 -22 82 56 201 308 473 25 28 65 75 88 105 23
30 47 61 54 67 27 29 67 129 70 177 5 57 -17 102 -61 131 -37 24 -95 28 -133
9z"/>
</g>
</svg>
